<?xml version="1.0" encoding="UTF-8"?><svg id="Layer_1" xmlns="http://www.w3.org/2000/svg" viewBox="0 0 18.13 6.79"><defs><style>.cls-1{fill:#fff;stroke-width:0px;}</style></defs><path class="cls-1" d="m4.23,6.79l-.87-1.5c-.35-.57-.57-.95-.79-1.34h-.02c-.19.39-.38.76-.73,1.35l-.82,1.49H0l2.07-3.43L.08,0h1.02l.9,1.59c.25.44.44.79.62,1.15h.03c.19-.4.36-.72.61-1.15l.93-1.59h1.01l-2.06,3.3,2.11,3.48h-1.02Z"/><path class="cls-1" d="m11.98,3.81c-.05-.95-.11-2.08-.1-2.93h-.03c-.23.8-.51,1.64-.86,2.58l-1.2,3.29h-.66l-1.1-3.23c-.32-.96-.59-1.83-.79-2.64h-.02c-.02.85-.07,1.98-.13,3l-.18,2.91h-.84l.47-6.79h1.12l1.16,3.28c.28.84.51,1.58.68,2.29h.03c.17-.68.41-1.43.72-2.29l1.21-3.28h1.12l.42,6.79h-.86l-.17-2.98Z"/><path class="cls-1" d="m14.36,0h.88v6.05h2.9v.74h-3.78V0Z"/></svg>